<?xml version="1.0" encoding="UTF-8"?>
<svg id="Layer_1" data-name="Layer 1" xmlns="http://www.w3.org/2000/svg" viewBox="0 0 98.502 53.354">
  <defs>
    <style>
      .cls-1 {
        fill: #fff;
      }

      .cls-1, .cls-2 {
        stroke: #1c75bc;
        stroke-miterlimit: 10;
        stroke-width: .5px;
      }

      .cls-2 {
        fill: #1c75bc;
      }
    </style>
  </defs>
  <path class="cls-2" d="M31.866,16.568c0-8.449-6.849-15.298-15.298-15.298S1.27,8.119,1.27,16.568c0,2.313,.528,4.498,1.447,6.463h-.017l13.868,29.732,13.868-29.732h-.017c.919-1.966,1.447-4.15,1.447-6.463Zm-15.298,6.119c-3.38,0-6.119-2.74-6.119-6.119s2.74-6.119,6.119-6.119,6.119,2.74,6.119,6.119-2.74,6.119-6.119,6.119Z"/>
  <path class="cls-1" d="M30.846,15.548C30.846,7.099,23.997,.25,15.548,.25S.25,7.099,.25,15.548c0,2.313,.528,4.498,1.447,6.463h-.017l13.868,29.732,13.868-29.732h-.017c.919-1.966,1.447-4.15,1.447-6.463Zm-15.298,6.119c-3.38,0-6.119-2.74-6.119-6.119s2.74-6.119,6.119-6.119,6.119,2.74,6.119,6.119-2.74,6.119-6.119,6.119Z"/>
  <path class="cls-2" d="M94.733,30.562c0-2.007,1.551-3.635,3.517-3.794-.134-12.558-10.35-22.699-22.941-22.699-6.046,0-11.542,2.342-15.641,6.163,.518,.652,.84,1.467,.84,2.364,0,2.112-1.712,3.824-3.824,3.824-.555,0-1.079-.124-1.555-.337-1.764,3.25-2.766,6.973-2.766,10.931,0,6.513,2.718,12.387,7.076,16.564,.365-1.731,1.9-3.032,3.74-3.032,2.112,0,3.824,1.712,3.824,3.824,0,1.371-.728,2.565-1.812,3.24,3.053,1.503,6.486,2.35,10.119,2.35,10.198,0,18.837-6.655,21.825-15.857-1.406-.565-2.402-1.936-2.402-3.544Zm-31.442,2.795c-2.112,0-3.824-1.712-3.824-3.824s1.712-3.824,3.824-3.824,3.824,1.712,3.824,3.824-1.712,3.824-3.824,3.824Zm7.347-21.789c0-2.112,1.712-3.824,3.824-3.824s3.824,1.712,3.824,3.824-1.712,3.824-3.824,3.824-3.824-1.712-3.824-3.824Zm7.953,31.709c-2.112,0-3.824-1.712-3.824-3.824s1.712-3.824,3.824-3.824,3.824,1.712,3.824,3.824-1.712,3.824-3.824,3.824Zm6.312-14.051c-2.112,0-3.824-1.712-3.824-3.824s1.712-3.824,3.824-3.824,3.824,1.712,3.824,3.824-1.712,3.824-3.824,3.824Z"/>
  <path class="cls-1" d="M93.713,29.542c0-2.007,1.551-3.635,3.517-3.794-.134-12.558-10.35-22.699-22.941-22.699-6.046,0-11.542,2.342-15.641,6.163,.518,.652,.84,1.467,.84,2.364,0,2.112-1.712,3.824-3.824,3.824-.555,0-1.079-.124-1.555-.337-1.764,3.25-2.766,6.973-2.766,10.931,0,6.513,2.718,12.387,7.076,16.564,.365-1.731,1.9-3.032,3.74-3.032,2.112,0,3.824,1.712,3.824,3.824,0,1.371-.728,2.565-1.812,3.24,3.053,1.503,6.486,2.35,10.119,2.35,10.198,0,18.837-6.655,21.825-15.857-1.406-.565-2.402-1.936-2.402-3.544Zm-31.442,2.795c-2.112,0-3.824-1.712-3.824-3.824s1.712-3.824,3.824-3.824,3.824,1.712,3.824,3.824-1.712,3.824-3.824,3.824Zm7.347-21.789c0-2.112,1.712-3.824,3.824-3.824s3.824,1.712,3.824,3.824-1.712,3.824-3.824,3.824-3.824-1.712-3.824-3.824Zm7.953,31.709c-2.112,0-3.824-1.712-3.824-3.824s1.712-3.824,3.824-3.824,3.824,1.712,3.824,3.824-1.712,3.824-3.824,3.824Zm6.312-14.051c-2.112,0-3.824-1.712-3.824-3.824s1.712-3.824,3.824-3.824,3.824,1.712,3.824,3.824-1.712,3.824-3.824,3.824Z"/>
</svg>