<?xml version="1.0" encoding="UTF-8"?>
<svg id="Layer_1" data-name="Layer 1" xmlns="http://www.w3.org/2000/svg" viewBox="0 0 250.572 130">
  <defs>
    <style>
      .cls-1 {
        fill: #27aae1;
      }

      .cls-2 {
        fill: #2b3990;
      }

      .cls-3 {
        fill: #1c75bc;
      }
    </style>
  </defs>
  <g>
    <polygon class="cls-1" points=".614 0 60.614 103.923 60.614 0 54.109 0 54.109 77.628 9.291 0 .614 0"/>
    <path class="cls-2" d="M58.851,130h8.676L7.528,26.077v103.923s6.505,0,6.505,0v-38.814h22.409l22.409,38.814ZM14.033,84.681V52.372l18.653,32.308H14.033Z"/>
    <polygon class="cls-3" points="60.614 0 60.614 103.923 .614 0 0 0 0 11.974 0 33.49 0 130 7.528 130 7.528 26.077 67.528 130 68.142 130 68.142 118.026 68.142 95.356 68.142 0 60.614 0"/>
  </g>
  <g>
    <path class="cls-3" d="M108.107,17.416h-.104c-.41,1.787-.863,3.766-1.334,5.457l-.407,1.566h3.627l-.405-1.566c-.471-1.692-.924-3.692-1.377-5.457Z"/>
    <path class="cls-3" d="M197.786,17.514c-2.313,0-3.772,2.003-3.772,5.394s1.459,5.542,3.772,5.542,3.773-2.149,3.773-5.542-1.459-5.394-3.773-5.394Z"/>
    <path class="cls-3" d="M75.072,3.803V38.253H228.472V3.803H75.072Zm23.112,27.638h-4.908l-5.527-10.54-2.095-4.617h-.13c.226,2.332,.612,5.163,.612,7.655v7.502h-4.564V10.303h4.908l5.527,10.513,2.095,4.644h.13c-.225-2.236-.612-5.197-.612-7.689v-7.468h4.564V31.442Zm13.518,0l-1.044-4.03h-5.17l-1.048,4.03h-3.918l5.324-16.918h4.586l5.325,16.918h-4.056Zm12.965,0h-4.605l-5.123-16.918h4.056l2.045,7.884c.504,1.851,.844,3.558,1.358,5.425h.104c.514-1.867,.875-3.574,1.359-5.425l2.001-7.884h3.919l-5.114,16.918Zm10.546,0h-3.833V14.523h3.833V31.442Zm17.092-1.738c-1.17,1.142-3.229,2.05-5.595,2.05-4.671,0-8.303-2.974-8.303-8.673,0-5.613,3.736-8.868,8.264-8.868,2.46,0,4.209,1.047,5.35,2.195l-2.022,2.453c-.841-.772-1.747-1.346-3.2-1.346-2.61,0-4.464,2.045-4.464,5.438,0,3.478,1.579,5.498,4.77,5.498,.679,0,1.383-.177,1.796-.503v-2.922h-2.809v-3.122h6.214v7.8Zm12.298,1.738l-1.043-4.03h-5.169l-1.048,4.03h-3.919l5.325-16.918h4.587l5.326,16.918h-4.058Zm15.813-13.711h-4.667v13.711h-3.833v-13.711h-4.667v-3.208h13.167v3.208Zm6.475,13.711h-3.833V14.523h3.833V31.442Zm10.895,.312c-4.572,0-7.7-3.317-7.7-8.845s3.128-8.697,7.7-8.697,7.701,3.191,7.701,8.697-3.128,8.845-7.701,8.845Zm24.186-.312h-3.928l-4.423-8.436-1.678-3.695h-.104c.182,1.866,.49,4.132,.49,6.127v6.004h-3.652V14.523h3.928l4.424,8.414,1.676,3.717h.104c-.18-1.789-.49-4.16-.49-6.154v-5.977h3.652V31.442Z"/>
    <path class="cls-3" d="M161.007,17.416h-.103c-.41,1.787-.864,3.766-1.335,5.457l-.407,1.566h3.628l-.405-1.566c-.471-1.692-.925-3.692-1.378-5.457Z"/>
  </g>
  <g>
    <path class="cls-3" d="M187.954,105.897h-1.959v4.797h1.959c2.015,0,3.098-.868,3.098-2.545,0-1.688-1.083-2.252-3.098-2.252Z"/>
    <path class="cls-3" d="M107.397,105.851c-2.311,0-3.77,2.02-3.77,5.441s1.459,5.588,3.77,5.588,3.77-2.167,3.77-5.588-1.459-5.441-3.77-5.441Z"/>
    <path class="cls-3" d="M172.889,105.752h-.103c-.41,1.802-.863,3.796-1.334,5.502l-.407,1.579h3.625l-.405-1.579c-.471-1.706-.924-3.722-1.377-5.502Z"/>
    <path class="cls-3" d="M75.072,91.688v35.1H215.472v-35.1H75.072Zm14.341,28.6c-2.755,0-5.682-1.05-7.841-3.082l2.749-3.306c1.505,1.319,3.457,2.227,5.2,2.227,1.997,0,2.975-.792,2.975-2.057,0-1.342-1.204-1.772-3.053-2.538l-2.751-1.182c-2.194-.898-4.272-2.713-4.272-5.809,0-3.533,3.133-6.353,7.54-6.353,2.437,0,4.987,.967,6.81,2.793l-2.416,3.037c-1.395-1.077-2.72-1.67-4.393-1.67-1.65,0-2.701,.693-2.701,1.912,0,1.307,1.385,1.783,3.232,2.522l2.697,1.1c2.585,1.053,4.199,2.786,4.199,5.799,0,3.54-2.931,6.606-7.975,6.606Zm17.984-.078c-4.569,0-7.695-3.344-7.695-8.918s3.126-8.771,7.695-8.771,7.695,3.219,7.695,8.771-3.126,8.918-7.695,8.918Zm21.576-14.14h-6.863v3.956h5.863v3.234h-5.863v6.636h-3.83v-17.06h10.693v3.234Zm14.734,0h-4.664v13.826h-3.83v-13.826h-4.664v-3.234h13.157v3.234Zm18.419,13.826h-4.816l-1.657-7.749c-.269-1.317-.495-2.685-.679-3.96h-.104c-.204,1.275-.419,2.643-.688,3.96l-1.604,7.749h-4.731l-3.146-17.06h3.925l1.174,7.969c.223,1.798,.468,3.597,.69,5.395h.104c.331-1.798,.67-3.619,1.01-5.395l1.822-7.969h3.249l1.822,7.969c.339,1.734,.679,3.575,1.018,5.395h.104c.223-1.82,.458-3.639,.681-5.395l1.174-7.969h3.66l-3.009,17.06Zm14.356,0l-1.042-4.064h-5.166l-1.047,4.064h-3.917l5.322-17.06h4.584l5.321,17.06h-4.055Zm14.854,0l-3.235-6.14h-2.106v6.14h-3.83v-17.06h6.102c3.594,0,6.539,1.256,6.539,5.313,0,2.508-1.212,4.092-3.021,4.916l3.839,6.832h-4.287Zm17.636,0h-10.876v-17.06h10.616v3.234h-6.785v3.426h5.777v3.235h-5.777v3.931h7.046v3.234Z"/>
  </g>
  <g>
    <path class="cls-3" d="M144.221,61.748h-1.766v5.147h1.87c2.109,0,3.106-.944,3.106-2.721,0-1.786-1.134-2.426-3.21-2.426Z"/>
    <path class="cls-3" d="M107.903,61.702c-2.314,0-3.774,2.02-3.774,5.439s1.46,5.588,3.774,5.588,3.773-2.167,3.773-5.588-1.46-5.439-3.773-5.439Z"/>
    <path class="cls-3" d="M75.072,47.538v35.1H250.572V47.538H75.072Zm16.362,28.6c-5.374,0-9.862-3.748-9.862-10.927,0-7.072,4.648-11.173,10.003-11.173,2.739,0,4.946,1.296,6.373,2.766l-2.525,3.09c-1.063-.996-2.207-1.696-3.74-1.696-2.907,0-5.201,2.577-5.201,6.851,0,4.381,2.027,6.928,5.124,6.928,1.74,0,3.109-.862,4.146-1.993l2.525,3.026c-1.759,2.059-4.101,3.128-6.843,3.128Zm16.469-.078c-4.575,0-7.703-3.345-7.703-8.919s3.129-8.769,7.703-8.769,7.702,3.218,7.702,8.769-3.129,8.919-7.702,8.919Zm26.726-.314h-3.492v-6.261c0-1.662,.31-4.145,.49-5.796h-.104l-1.391,4.037-2.398,6.535h-2.128l-2.402-6.535-1.354-4.037h-.103c.18,1.651,.489,4.133,.489,5.796v6.261h-3.439v-17.06h4.183l2.752,7.58c.34,1.007,.636,2.099,.977,3.15h.104c.339-1.05,.628-2.143,.967-3.15l2.666-7.58h4.183v17.06Zm9.924-5.789h-2.097v5.789h-3.834v-17.06h5.827c3.731,0,6.742,1.343,6.742,5.488,0,4.01-3.044,5.783-6.638,5.783Zm20.462,5.789h-10.887v-17.06h10.627v3.235h-6.793v3.426h5.783v3.235h-5.783v3.929h7.053v3.235Zm15.192-13.825h-4.669v13.825h-3.834v-13.825h-4.669v-3.235h13.171v3.235Zm6.479,13.825h-3.834v-17.06h3.834v17.06Zm15.817-13.825h-4.669v13.825h-3.834v-13.825h-4.669v-3.235h13.171v3.235Zm6.479,13.825h-3.834v-17.06h3.834v17.06Zm10.897,.314c-4.573,0-7.702-3.345-7.702-8.919s3.129-8.769,7.702-8.769,7.703,3.218,7.703,8.769-3.129,8.919-7.703,8.919Zm24.194-.314h-3.929l-4.425-8.506-1.678-3.726h-.104c.182,1.882,.49,4.167,.49,6.178v6.054h-3.654v-17.06h3.929l4.426,8.485,1.677,3.748h.104c-.18-1.804-.49-4.195-.49-6.206v-6.027h3.654v17.06Z"/>
    <path class="cls-3" d="M219.878,61.702c-2.313,0-3.773,2.02-3.773,5.439s1.46,5.588,3.773,5.588,3.774-2.167,3.774-5.588-1.46-5.439-3.774-5.439Z"/>
  </g>
</svg>