<?xml version="1.0" encoding="UTF-8"?>
<svg id="solo_logo_copy" data-name="solo logo copy" xmlns="http://www.w3.org/2000/svg" viewBox="0 0 258.32 270">
  <defs>
    <style>
      .cls-1 {
        fill: #27aae1;
      }

      .cls-2 {
        fill: #2b3990;
      }

      .cls-3 {
        fill: #1c75bc;
      }

      .cls-4 {
        fill: #414042;
      }
    </style>
  </defs>
  <path class="cls-4" d="M23.826,107.445c-4.981-28.533-18.786-33.973-19.414-49.851C3.521,35.042,29.939,9.822,60.889,1.916c22.846-5.836,49.663,2.073,102.363,18.128,52.655,16.041,78.982,24.062,88.244,35.608,20.845,25.985-12.578,43.541-14.119,110.061-.964,41.605,11.701,52.446-3.53,71.216-18.626,22.953-59.634,33.938-93.539,33.018-33.795-.916-56.445-13.549-82.067-27.839C28.446,225.49,.126,209.695,0,188.372c-.107-18.127,20.258-23.669,24.708-53.736,1.738-11.739,.161-21.213-.882-27.192Z"/>
  <g>
    <polygon class="cls-1" points="84.023 47.308 164.97 187.511 164.97 47.308 156.193 47.308 156.193 152.036 95.729 47.308 84.023 47.308"/>
    <path class="cls-2" d="M162.591,222.692h11.705L93.35,82.489V222.692s8.776,0,8.776,0v-52.364h30.232l30.232,52.364Zm-60.465-61.141v-43.588l25.165,43.588h-25.165Z"/>
    <polygon class="cls-3" points="164.97 47.308 164.97 187.511 84.023 47.308 83.194 47.308 83.194 63.462 83.194 92.489 83.194 222.692 93.35 222.692 93.35 82.489 174.297 222.692 175.126 222.692 175.126 206.538 175.126 175.953 175.126 47.308 164.97 47.308"/>
  </g>
</svg>