<?xml version="1.0" encoding="UTF-8"?>
<svg id="Blue_colour_scheme" data-name="Blue colour scheme" xmlns="http://www.w3.org/2000/svg" viewBox="0 0 118.026 225.167">
  <defs>
    <style>
      .cls-1 {
        fill: #27aae1;
      }

      .cls-2 {
        fill: #2b3990;
      }

      .cls-3 {
        fill: #1c75bc;
      }
    </style>
  </defs>
  <polygon class="cls-1" points="1.064 0 104.987 180 104.987 0 93.72 0 93.72 134.455 16.092 0 1.064 0"/>
  <path class="cls-2" d="M101.934,225.167h15.028L13.039,45.167V225.167s11.267,0,11.267,0v-67.228H63.12l38.814,67.228ZM24.306,146.672v-55.96l32.308,55.96H24.306Z"/>
  <polygon class="cls-3" points="104.987 0 104.987 180 1.064 0 0 0 0 20.74 0 58.006 0 225.167 13.039 225.167 13.039 45.167 116.961 225.167 118.026 225.167 118.026 204.427 118.026 165.161 118.026 0 104.987 0"/>
</svg>